<?xml version="1.0" encoding="iso-8859-1"?>
<!-- Uploaded to: SVG Repo, www.svgrepo.com, Generator: SVG Repo Mixer Tools -->
<svg version="1.1" id="Layer_1" xmlns="http://www.w3.org/2000/svg" xmlns:xlink="http://www.w3.org/1999/xlink" 
	 viewBox="0 0 512 512" xml:space="preserve">
<path style="fill:#169ED9;" d="M459.85,134.738h-97.716c-9.864,0-17.86-7.997-17.86-17.86V42.315c0-9.864,7.997-17.86,17.86-17.86
	h97.716c9.864,0,17.86,7.997,17.86,17.86v74.564C477.71,126.741,469.714,134.738,459.85,134.738z"/>
<g>
	<path style="fill:#54C9EB;" d="M149.866,134.738H52.15c-9.864,0-17.86-7.997-17.86-17.86V42.315c0-9.864,7.997-17.86,17.86-17.86
		h97.716c9.864,0,17.86,7.997,17.86,17.86v74.564C167.726,126.741,159.73,134.738,149.866,134.738z"/>
	<path style="fill:#54C9EB;" d="M304.858,134.738h-97.716c-9.864,0-17.86-7.997-17.86-17.86V42.315c0-9.864,7.997-17.86,17.86-17.86
		h97.716c9.864,0,17.86,7.997,17.86,17.86v74.564C322.718,126.741,314.722,134.738,304.858,134.738z"/>
</g>
<path style="fill:#169ED9;" d="M304.858,24.455H256v110.285h48.858c9.864,0,17.86-7.997,17.86-17.86V42.315
	C322.718,32.45,314.722,24.455,304.858,24.455z"/>
<path style="fill:#84DBFF;" d="M494.14,487.545H17.86c-9.864,0-17.86-7.997-17.86-17.86V116.878c0-9.864,7.997-17.86,17.86-17.86
	H494.14c9.864,0,17.86,7.997,17.86,17.86v352.807C512,479.55,504.003,487.545,494.14,487.545z"/>
<g>
	<path style="fill:#54C9EB;" d="M494.14,99.017H256v388.528h238.14c9.864,0,17.86-7.997,17.86-17.86V116.878
		C512,107.014,504.003,99.017,494.14,99.017z"/>
	<rect y="275.42" style="fill:#54C9EB;" width="512" height="35.721"/>
</g>
<rect x="256" y="275.42" style="fill:#169ED9;" width="256" height="35.721"/>
</svg>