<?xml version="1.0" encoding="utf-8"?>
<!-- Generator: Adobe Illustrator 21.0.0, SVG Export Plug-In . SVG Version: 6.00 Build 0)  -->
<svg version="1.1" id="Layer_1" xmlns="http://www.w3.org/2000/svg" xmlns:xlink="http://www.w3.org/1999/xlink" x="0px" y="0px"
	 width="3000px" height="2000px" viewBox="0 0 3000 2000" style="enable-background:new 0 0 3000 2000;" xml:space="preserve">
<style type="text/css">
	.st0{fill-rule:evenodd;clip-rule:evenodd;fill:#D4FFFE;}
	.st1{fill-rule:evenodd;clip-rule:evenodd;fill:#C7FCFB;}
	.st2{fill-rule:evenodd;clip-rule:evenodd;fill:#E3FFFF;}
	.st3{fill-rule:evenodd;clip-rule:evenodd;fill:#FBEDCA;}
	.st4{fill-rule:evenodd;clip-rule:evenodd;fill:#F2E2B8;}
	.st5{fill-rule:evenodd;clip-rule:evenodd;fill:#FFF8E5;}
	.st6{fill-rule:evenodd;clip-rule:evenodd;fill:#E6F0D7;}
	.st7{fill-rule:evenodd;clip-rule:evenodd;fill:#6DE4DE;}
	.st8{fill-rule:evenodd;clip-rule:evenodd;fill:#66D6D0;}
	.st9{fill-rule:evenodd;clip-rule:evenodd;fill:#22C3D5;}
	.st10{fill-rule:evenodd;clip-rule:evenodd;fill:#22AEBD;}
	.st11{fill-rule:evenodd;clip-rule:evenodd;fill:#26C0D1;}
	.st12{fill-rule:evenodd;clip-rule:evenodd;fill:#25B2C2;}
	.st13{fill-rule:evenodd;clip-rule:evenodd;fill:#26A5B3;}
	.st14{fill-rule:evenodd;clip-rule:evenodd;fill:#808080;}
	.st15{fill-rule:evenodd;clip-rule:evenodd;fill:#666666;}
	.st16{fill-rule:evenodd;clip-rule:evenodd;fill:#999999;}
	.st17{fill-rule:evenodd;clip-rule:evenodd;fill:#274F57;}
	.st18{fill-rule:evenodd;clip-rule:evenodd;fill:#498278;}
	.st19{fill-rule:evenodd;clip-rule:evenodd;fill:#376169;}
</style>
<g>
	<path class="st0" d="M0.5,1336.5c463.2,41.3,969.5,64,1500,64s1036.8-22.8,1500-64V0.5H0.5V1336.5z"/>
	<path class="st1" d="M0.5,720.1c385.2-222.4,912.8-359.6,1495-359.6c587.2,0,1119,139.6,1505,365.4V0.5H0.5V720.1z"/>
	<path class="st2" d="M663.4,692.4c-130.7,70-130.2-144.3-349.1-144.3c-185.8,0-194.7,169.9-313.7,251.1v210h2001.8
		C1420.5,860.5,1320.5,340.5,663.4,692.4z"/>
	<path class="st2" d="M2832,720.5c-137.1,0-125.8,90.3-218.6,90.3c-35.6,0-420.1-288.8-611.1,198.4h998.2V853.4
		C2950.1,799,2931.9,720.5,2832,720.5z"/>
	<g>
		<rect x="0.5" y="1009.2" class="st3" width="3000" height="991.3"/>
		<path class="st4" d="M1878.9,1837.5C1126.7,1639.3,719,2048,0.5,1763.4v237.1h3000v-253.8
			C2724.6,1770.9,2389.2,1971.9,1878.9,1837.5z"/>
		<path class="st4" d="M0.5,1733.2c35.9-23.3,45.2-60.1,148.1-45.8c148.3,20.7,101.4-37.6,217.1-37.6c146.9,0,153,37.6,423.8,14.9
			c75.4-6.3,113,23.2,188.3,35.3c164.9,26.5,184.8-42.6,349.5-19.7c94.8,13.2,148.3,65.7,276.7,25.4
			c174.3-54.7,362.2,48.5,467.7,1.2c67-30,179.9-73.6,250.9-30c87.1,53.5,178.5,86.9,293.9,47.8c34-11.5,72.4-34.6,129.9-29.8
			c62,5.2,88.2,58,147.7,70.7c45.5,9.7,79.2,11.8,106.5,8.5v-758.4H0.5V1733.2z"/>
		<path class="st5" d="M0.5,1633.9c35.7-9.5,72.2-17.3,122.9-19.6c101.8-4.5,224.2-4.9,310.5,17c62.7,15.9,230,38.3,300.8,15.6
			c66.1-21.2,195-25,277.4-11.5c178.8,29.3,287.3,44.6,463.2,3.6c131.5-30.7,418.1-20.6,541.4,20.5c57.8,19.2,252.6,25.7,325.7,16.1
			c234.8-31.1,275.2-3.2,464.6,37.2c64.7,13.8,129.5,11.1,193.4,1.9v-699H0.5V1633.9z"/>
		<path class="st6" d="M0.5,1576c35.9-18.2,45.2-46.9,148.1-35.8c148.3,16.1,101.4-29.3,217.1-29.3c146.9,0,153,29.4,423.8,11.6
			c75.4-4.9,113,18.1,188.3,27.5c164.9,20.7,184.8-33.3,349.5-15.4c94.8,10.3,148.3,51.3,276.7,19.8c174.3-42.7,362.2,37.8,467.7,1
			c67-23.4,179.9-57.5,250.9-23.4c87.1,41.8,178.5,67.9,293.9,37.4c34-9,72.4-27,129.9-23.3c62,4.1,88.2,45.3,147.7,55.2
			c45.5,7.6,79.2,9.2,106.5,6.6v-592.2H0.5V1576z"/>
		<path class="st7" d="M0.5,1434.5c191.4-7.4,390.3-36,501.6-22.5c871.4,105.2,1485.7,51.3,1767.6,16.3
			c261.6-32.5,460.6,19.5,730.8,38.3v-450.8H0.5V1434.5z"/>
		<path class="st8" d="M0.5,1379.6c332.8-3.2,657.2-178.5,1061.7-81.4c283.7,68.1,689,108.7,996.8,44.2
			c366.1-76.7,663.6-59.3,941.6,42.7v-369.3H0.5V1379.6z"/>
		<path class="st9" d="M0.5,1309.4c145,8.2,270.2,24.4,353.4,39.8c400.6,74.1,861.5,60.6,1182.2-9.6
			c162.7-35.6,736.9-47.8,978.8,1.1c172,34.8,271,52.7,485.6,70.8v-395.8H0.5V1309.4z"/>
		<path class="st10" d="M0.5,1309.4c119.5,6.7,225.6,18.9,305.8,31.6c233.1-46.4,475.3-110.3,755.9-42.8
			c108.7,26.1,235.2,48.1,367.2,61.8c37-6.1,72.7-12.9,106.7-20.4c114.6-25.1,433.3-38.5,696.3-27.2c288.9-38.8,535.4-12.7,768,72.7
			v-369.4H0.5V1309.4z"/>
		<path class="st11" d="M0.5,1276.7c145,8.2,270.2,24.4,353.4,39.8c400.6,74.1,861.5,60.6,1182.2-9.6
			c162.7-35.6,736.9-47.8,978.8,1.1c172,34.8,271,52.7,485.6,70.8v-363.1H0.5V1276.7z"/>
		<path class="st12" d="M0.5,1276.7c145,8.2,270.2,24.4,353.4,39.8c12.9,2.4,25.9,4.7,38.9,6.9c206.8-42.5,423.3-84.3,669.4-25.2
			c74.3,17.9,157,33.8,244,46.5c82-9.6,159.4-22.3,229.9-37.7c146.9-32.2,629.5-45.2,899.8-11.4c195.6-5.5,372.5,22.4,541.8,81.4
			c7.5,0.7,15.1,1.3,22.8,2v-363.1H0.5V1276.7z"/>
		<path class="st13" d="M0.5,1228.9c332.8-1.9,657.2-107.8,1061.7-49.1c283.7,41.1,689,65.6,996.8,26.7
			c366.1-46.3,663.6-35.8,941.6,25.8v-223H0.5V1228.9z"/>
		<path class="st4" d="M730.6,1578c-73.2,0-213.4-62.3-270.1-17.5c-5.5,4.4-4,23.6,10.5,32.6c44.3,27.2,85.7,14.8,127.1,29.6
			C722.6,1667.1,819.8,1578,730.6,1578z"/>
		<path class="st4" d="M387.3,1546.3c-24.3,1.8-60.5-10-69.5,8.2c-23,46.2,66.1,27.6,72.7,39.5
			C424.3,1616.1,447.3,1542,387.3,1546.3z"/>
		<path class="st4" d="M800.9,1618.2c3,6.3,44.9-1.5,45.8-9.6C849.8,1583.9,795.3,1606.3,800.9,1618.2z"/>
		<path class="st4" d="M861.9,1563.9c-19.2-5.1-23.4-9.5-38.2-14.4c-9.9-3.3-45.3-3.3-47.9,9.1c-3.8,18.5,40.5,9.2,58.1,16.2
			C873.5,1590.6,874.6,1567.3,861.9,1563.9z"/>
		<path class="st4" d="M1367.6,1593.7c-26.4,1.7-63.5-5.5-65.9-6.6c-61.2-26.6-75.6-8.8-111.2,2.6c-57.2,12.1,22,46.9,63.4,39.6
			c63.6-11.4,33.1,6.2,93.7-0.6C1420.5,1620.5,1401.6,1591.5,1367.6,1593.7z"/>
		<path class="st4" d="M1176,1576c15.2-29.9-68.1-1.7-75.5-1c-3.2,0.3-12.9,1.7-13.9,7.6C1079.6,1624,1171.2,1585.4,1176,1576z"/>
		<path class="st4" d="M1433.2,1580.8c-0.5,0-0.7-0.4-1.1-0.1c-27.8,20.9,39.8,19.5,40,19.3
			C1498.3,1581.5,1439.4,1581.1,1433.2,1580.8z"/>
	</g>
	<path class="st8" d="M445.1,958.3c0-17-43.4-14.9-44.5-14.8c-120.4,5.1-135.3-24.7-177.8-14.8c-34.9,8.1-51.6-27-74.1-59.3
		C122.2,831.3,40.4,845.8,0.5,841v168.2h478.7c1.5-3.6,1.8-7.6,0.7-11.9C477.4,987.9,445.1,973.1,445.1,958.3z"/>
	<path class="st8" d="M2900.5,860.5c-12.7,74.9-170.4-0.7-231.4,42.8c-31.8,22.6-71.2-43.4-163.1,58.8
		c-16.5,18.3-100.6-18.4-188.6,47.2h683.2V834.6C2975.8,842.8,2903.3,844,2900.5,860.5z"/>
	<g>
		<path class="st14" d="M2025.3,0.5h-423.3h-204.9c85.6,70.8,154.7,158.9,327.4,158.9c77.1,0,121.8-5.7,197.5,3.6
			c78.4,9.6,65.5,38.2,140.6,60.8c10.2,3.1,25.6,36.7,27.4,45.4c21.5,4.5,64.5,84.7,157.7,24.9c46.2-29.7,107.3,66.8,227.7-53.6
			c40-40,88.8-66.5,143.1-30.1c37.6,25.2-14.8,200.4,110.2,233.5c0.7,0.2,125.7,83.1,161,90.4c35.6,7.4,70.8,42.5,110.9,57V0.5
			h-371.8H2025.3z"/>
		<path class="st15" d="M2025.3,0.5h-423.3h-16.3c2.7,5.8,5.2,12,7.3,18.7c9.2,29.1,52.5,75,84.1,73.7c21.6-0.9,45.4,13.8,81.3,3.8
			c24.4-6.8,144.3-11.8,167.6,1.2c17.5,9.8,113.3,35.6,127.4,53.6c17.9,22.8,104.5,32.8,137.7,46.4c33.7,13.9,183.9-28.6,217.6-56.5
			c0.4-0.3,92.9-35.2,110.5-44.6c45-24.1,64.5-24.2,115.1-11.9c71.4,17.4,63.2,136.9,139,195.6c92.9,71.9,63.4,112,227.3,112V0.5
			h-371.8H2025.3z"/>
	</g>
	<g>
		<path class="st15" d="M353.2,0.5H0.5v1400v172.9c15.7,1.9,32,0.9,49-3.6c43.5-11.5,104.4-138.1,57.8-138.1
			c-16.7,0-22.3-6.8-26.8-13.4c-42-62.1-12.5-209.2,33.5-267.9c45.5-58,7.6-193.6,99.3-315.6c75.5-100.5,59.1-355.5,70.6-371.7
			c0.4-0.5,16-76.4,40.5-110.5c18-25.2,38-61.4,70.9-72.8c16.4-5.7,83.8-44.9,116.9-50.5c53.8-9.1,111.4-128.3,168-159.3
			c10.3-5.7,63.2-52.7,94.9-69.6H556.3H353.2z"/>
		<path class="st14" d="M353.2,0.5H0.5V37c38.7-1,80.5,5.2,98.4,14.7c26.1,13.9,62.6,27.6,87.1,49.1c29.5,26,125.1,61.1,163.6,45.6
			c49.7-19.9,56.4-19.8,103.1-49.9C480.3,78.8,525,33.7,563.4,0.5h-7.2H353.2z"/>
		<path class="st14" d="M149.3,316.7c-35.1-9.5-68.8-34.6-88.9-41c-5.8-1.9-40.3-19.2-59.9-25.6v539.1c22.8,4.5,39-18,86.7,1.7
			c35.5,14.7,43.7-8.7,59-36.8c29.7-54.7,36.1-96.4,28.2-161.1c-9.7-79.2,4.4-91.3,13.1-162.4C191.9,394.2,194.1,328.8,149.3,316.7z
			"/>
		<path class="st16" d="M128.9,403.9c-6.2-30.5-44.7-52.9-72.7-52c-18.2,0.6-11.7,37.5-19.7,56.9c-10.3,25-5.7,135.5,3.3,157.4
			c5.7,13.8,7.1,110.2,5.5,128.9c-3.2,36.9,62.7,13.6,72.4-2.9c24.2-40.9,8.3-115.8-0.6-159.3C107.2,484,139.6,456.6,128.9,403.9z"
			/>
		<path class="st14" d="M178,166C155.6,137.6,57.8,78.2,27.7,75.6C8.2,184.3,73.9,215.8,149.1,274.8c6.2,4.9,120.4-2.6,126.8-11.7
			C307.5,218.2,196,189.1,178,166z"/>
	</g>
	<path class="st8" d="M2319.6,576.1c-5.7-40-59.4-53-84.2-34l84.2,48.6l84.2-48.6C2379,523.1,2325.4,536.2,2319.6,576.1z"/>
	<path class="st8" d="M2236.4,682.1c-2.2-15.2-22.6-20.2-32-12.9l32,18.5l32-18.5C2259,661.9,2238.6,666.9,2236.4,682.1z"/>
	<path class="st8" d="M2420.4,716.4c-3.8-26.4-39.3-35.1-55.7-22.5l55.7,32.1l55.7-32.1C2459.7,681.4,2424.2,690,2420.4,716.4z"/>
	<g>
		<path class="st4" d="M688.4,1592.1c-27.1-7.3-38.2-10.7-65.5-1.9c-21.8,7-13.6,7.3-38.3,8.2c-3.8,0.1-7.8-0.6-11.4-1.6
			c-18.7-10.8-52.4-13.9-51.6,3.8c0.5,10.7,43,30.4,58.5,20.6c11.7,3.4,25.3,4.1,33.5,4.5c25,1.3,46.6,12.5,70.3,1.5
			C706.8,1616.6,707.9,1597.3,688.4,1592.1z"/>
		<g>
			<ellipse class="st15" cx="511.6" cy="1702.6" rx="90" ry="60"/>
			<g>
				<path class="st14" d="M486.7,1656.2c-27.6,1.9-50,18.4-50,36.8c0,18.4,22.4,31.8,50,29.9c27.6-1.9,50-18.4,50-36.8
					C536.7,1667.7,514.3,1654.3,486.7,1656.2z"/>
				<path class="st16" d="M477.5,1664c-18.4,1.3-33.3,12.2-33.3,24.5c0,12.3,14.9,21.2,33.3,19.9c18.4-1.3,33.3-12.2,33.3-24.5
					S495.9,1662.7,477.5,1664z"/>
			</g>
		</g>
		<g>
			<path class="st15" d="M575.2,1604.3c-26,2.8-47,19-47,36.3c0,17.3,21,29.1,47,26.3c26-2.8,47-19,47-36.3
				C622.2,1613.3,601.2,1601.5,575.2,1604.3z"/>
			<g>
				<path class="st14" d="M562.2,1612.8c-14.4,2.5-26.1,12.4-26.1,22c0,9.6,11.7,15.4,26.1,12.8c14.4-2.5,26.1-12.4,26.1-22
					C588.4,1616,576.7,1610.3,562.2,1612.8z"/>
				<path class="st16" d="M557.4,1617.4c-9.6,1.7-17.4,8.2-17.4,14.7c0,6.4,7.8,10.2,17.4,8.6c9.6-1.7,17.4-8.3,17.4-14.7
					C574.8,1619.5,567,1615.7,557.4,1617.4z"/>
			</g>
		</g>
		<g>
			<path class="st15" d="M671.4,1672.8c-26,2.8-47,19-47,36.3c0,17.3,21,29.1,47,26.3c26-2.8,47-19,47-36.3
				C718.4,1681.9,697.3,1670.1,671.4,1672.8z"/>
			<g>
				<path class="st14" d="M658.4,1681.3c-14.4,2.5-26.1,12.4-26.1,22s11.7,15.4,26.1,12.8c14.4-2.5,26.1-12.4,26.1-22
					C684.5,1684.5,672.8,1678.8,658.4,1681.3z"/>
				<path class="st16" d="M653.5,1685.9c-9.6,1.7-17.4,8.2-17.4,14.7c0,6.4,7.8,10.2,17.4,8.6c9.6-1.7,17.4-8.3,17.4-14.7
					C670.9,1688,663.2,1684.2,653.5,1685.9z"/>
			</g>
		</g>
	</g>
	<g>
		<path class="st17" d="M253.3,1270.4c-4.9-127.8-37-211.7-90.8-211.7c-51.7,0-111.7,77.5-162,197v94.6l43.1,79.5l-43.1-46.4v98.3
			c48.2,33,81.6,64,79.5,75.5c-2,10.8-34.7,1.2-79.5-21.6v464.8h41.6c73.2-65.7,150.1-245.7,188.7-457.6
			c11.1-61.1,18.1-119.5,21.3-173.3c-50.1,34.2-84.3,39.6-79,10.3C177.7,1354.6,210.7,1310.5,253.3,1270.4z"/>
		<g>
			<path class="st18" d="M374.5,1385.8c-14.9,42.1-16.6,54.7-32.5,69.2c-49.8,45.5-110-5.4-150.4,55c-40.4,60.4,2.8,82.1-24.6,123
				c-1.8,2.6-14.3,10.1-32.5,21.4c18.8,38.9,26.2,70,16.9,77.5c-9.8,7.9-35.1-12.2-63-47.5c-28.8,19.9-61,44.6-87.9,72.6v229.2
				c5.5,4.8,11.5,9.5,17.9,14.3h234.8c12.3-15.4,22.9-33.1,32-51.9c-48.3-14.9-78.2-31.4-71.4-41.5c6.3-9.4,42.6-10.7,90.4-4.7
				c25.5-73,33.4-146.1,37.7-152.5c27.3-40.9,63.8-9.3,104.2-69.7c40.4-60.4-29.7-96.6-6.7-160c7.3-20.2,18.3-26.6,51.5-56.5
				C576.1,1387,412.7,1277.8,374.5,1385.8z"/>
			<path class="st17" d="M419.8,1436.8c-7.6-5.1-17.9-3-23,4.6l-113.2,169.3l-23.9-62.1c-3.3-8.5-12.9-12.8-21.4-9.5
				c-8.5,3.3-12.8,12.9-9.5,21.4l32.3,83.8L23.2,2000.5H63l101.5-151.9l89.8-2.2c9.1-0.2,16.3-7.8,16.1-16.9
				c-0.2-9.1-7.8-16.3-16.9-16.1l-66.5,1.6l237.4-355.2C429.5,1452.2,427.4,1441.9,419.8,1436.8z"/>
		</g>
		<g>
			<path class="st19" d="M678.7,1696.4L678.7,1696.4L678.7,1696.4c-16.6,0.9-33.5,2.2-50.7,3.7c-37.4,0.8-88.6-2.5-129-21.2
				c-146.6-67.9-169.5,69.2-332.3,124.3c-33,11.2-51.9-1.1-73.6-13.2l-92.6,95.4v115.1h396.3c207.2-115.2,412.5-204.2,603.7-265.1
				C913.7,1702.3,804.3,1689.7,678.7,1696.4z"/>
			<polygon class="st17" points="0.5,1885.4 0.5,1904.9 57.1,1972.9 25.8,1859.4 			"/>
			<path class="st17" d="M207.2,1786.7l100.7,70.8c0,0-24.8-47.7-51.9-99C241.3,1768.5,225.2,1778.1,207.2,1786.7z"/>
			<path class="st17" d="M396.8,2000.5c207.2-115.2,412.5-204.2,603.7-265.1c-316.4,77.2-562.6,160.9-775.6,265.1H396.8z"/>
		</g>
	</g>
	<g>
		<polygon class="st14" points="2686.8,1270.1 2368.9,1671.3 2124.8,1711.9 1950.7,2000.5 3000.5,2000.5 3000.5,1361.4 
			2842.4,1460.7 		"/>
		<polygon class="st15" points="2739,1520.9 2715.6,1728.5 2792.6,1919.3 2710.6,1867.4 2578.3,1867.4 2615.1,2000.5 3000.5,2000.5 
			3000.5,1361.4 2848.5,1525.6 		"/>
		<polygon class="st16" points="2124.8,1711.9 1950.7,2000.5 2438.3,2000.5 2412.7,1803.9 2556.2,1791.4 2686.8,1270.1 
			2368.9,1671.3 		"/>
	</g>
	<g>
		<path class="st17" d="M2789.5,1537.6l81.2-41.7c-44.4-13.4-91.3-22.7-139.7-27.5l-184.1,32l82-35.3c-34.8,1.2-70,4.7-105.2,10.9
			c-99.1,17.2-186,52.5-255.5,99.9c267.3-21.7,545.6,156.9,667.1,424.6h65.2v-450.1c-8.7-4.9-17.5-9.5-26.6-14L2789.5,1537.6z"/>
		<path class="st18" d="M2949,1514.9l-55.6,47.3l37.7-83.6c-6.5-12.5-13.1-24.4-19.8-35.8c-27,14-47,18.3-50.1,9.2
			c-2.7-8.1,8.5-24.9,28-44.2c-51-75.6-104.2-117-143.8-103.7c-45.2,15.2-61.4,98.4-48.3,210.5c48.3,0.7,87.4,9.4,91.4,21.3
			c4.2,12.6-32.7,24.2-84.2,27.2c5,28.3,11.7,57.9,20,88.3l131.5,27.2l-120.7,9.6c2.5,8.1,5.2,16.3,7.9,24.4
			c43.2,128.6,104,234.1,160.4,287.9h97.2v-352.8c-2.1-6.5-4.2-13-6.4-19.5C2980.6,1587.9,2965.3,1549.8,2949,1514.9z"/>
		<g>
			<path class="st19" d="M2744.3,1716.5c-28,36.9-59,61.6-69.7,55.3c-9.1-5.4-0.5-31.6,19.4-62.3c-18.7-1.3-37.6-1.2-56.4,0.5
				l-100.1,80.1l60.2-74.1c-111.3,23.3-216.4,103.2-270.6,258.4c122.8-101,305.3-89.5,414.6,26.2h258.9
				C2997.2,1852.8,2881.5,1745.6,2744.3,1716.5z"/>
			<path class="st17" d="M2430.6,1862.3c164.1-82.1,367.1,27.7,448.9,138.2h59C2818.1,1806.8,2541.7,1744.9,2430.6,1862.3z"/>
		</g>
	</g>
</g>
</svg>
