<?xml version="1.0" encoding="utf-8"?>
<!-- Uploaded to: SVG Repo, www.svgrepo.com, Generator: SVG Repo Mixer Tools -->
<svg width="800px" height="800px" viewBox="0 -11.68 218.275 218.275" xmlns="http://www.w3.org/2000/svg"><defs><style>.a{fill:#c6c6c6;}.b{fill:#a0a0a0;}.c{fill:#211715;}.d{fill:#ffffff;}</style></defs><path class="a" d="M149.451,2.4c39.276,0,66.424,43.384,66.424,94.149,0,58.767-25.694,95.915-66.426,95.915-41.681,0-66.426-37.148-66.426-95.915C83.023,45.437,110.313,2.4,149.451,2.4Z"/><path class="b" d="M93.14,69.2c11.175.029,23.815.012,34.812.046,4.564,0,13.853,6.06,13.853,28.155,0,18.136-6.886,28.268-12.02,28.268,0,0-34.035-.068-40.4-.068"/><path class="c" d="M105.5,28.893c7.87-10.555,18.666-19.152,31.552-22.518a49.267,49.267,0,0,1,32.6,2.746,62.15,62.15,0,0,1,24,20.164A99.629,99.629,0,0,1,209,62.107a137.492,137.492,0,0,1,4.387,40.512A145.209,145.209,0,0,1,207.5,140.67c-3.071,10.022-7.722,20.019-14.176,28.091A56.2,56.2,0,0,1,171.5,185.755c-.243.105-.728.3-1.224.5q-.847.332-1.7.633-1.665.587-3.366,1.067a57.387,57.387,0,0,1-6.888,1.489,60.714,60.714,0,0,1-7.033.6,66.112,66.112,0,0,1-9.634-.428A53.9,53.9,0,0,1,109.143,173.3a63.1,63.1,0,0,1-6.023-7.327,2.465,2.465,0,0,0-3.284-.861,2.422,2.422,0,0,0-.861,3.284c7.841,11.119,18.642,19.76,31.744,23.777a64.421,64.421,0,0,0,35.384.515,58.585,58.585,0,0,0,25.454-14.8c7.767-7.635,13.4-17.13,17.471-27.172,4.869-12.016,7.389-24.894,8.539-37.772a154.1,154.1,0,0,0-1.859-43.163,112.236,112.236,0,0,0-13.777-36.717c-6.018-9.92-14-18.84-23.945-24.938A54.571,54.571,0,0,0,145.118.178c-14.137,1.17-26.956,7.975-36.8,18.052a81.238,81.238,0,0,0-6.964,8.24,2.416,2.416,0,0,0,.861,3.284,2.458,2.458,0,0,0,3.284-.861Z"/><path class="c" d="M173.135,27.308c6.423,5.922,11.05,13.551,14.427,21.554A113.377,113.377,0,0,1,195.07,77.24a157.675,157.675,0,0,1,.9,31.867,136.633,136.633,0,0,1-4.9,29.594c-2.57,8.784-6.345,17.607-12.654,24.382-2.1,2.259,1.283,5.661,3.394,3.394,5.94-6.378,9.852-14.349,12.638-22.539a130.593,130.593,0,0,0,5.991-30.457c1.892-21.218.462-43.385-7.248-63.417-3.728-9.685-8.958-19.053-16.656-26.15-2.268-2.091-5.671,1.295-3.394,3.394Z"/><path class="c" d="M93.14,71.6q11.885.03,23.768.026c3.72,0,7.472-.133,11.188.022.384.016.737.168.125-.014.23.068.48.089.713.149s.462.146.693.216c.365.11.293.12-.035-.029.143.065.288.126.428.2a16.3,16.3,0,0,1,1.636.992c.394.263-.086-.079.026.016.128.107.259.212.385.322.311.269.609.553.9.848.263.27.513.552.759.839.059.068.4.493.249.3-.136-.173.234.318.3.418A21.342,21.342,0,0,1,135.8,78.4c2.386,4.587,3.314,10.478,3.543,15.884a53.414,53.414,0,0,1-2.466,19.873,24.086,24.086,0,0,1-3.019,6.013c-.063.089-.391.531-.285.394s-.225.271-.291.348a12.885,12.885,0,0,1-.973,1.024c-.137.129-.282.249-.421.376-.342.316.014.006-.077.068-.321.22-.642.422-.983.61-.085.047-.557.242-.2.1s-.11.032-.2.054c-.133.033-.282.06-.411.105-.454.162.349.033.033,0a4.827,4.827,0,0,0-.55.011c-.893.011-1.786.012-2.679.019l-11.1.076c-8.27.056-16.54.12-24.81.145q-.765,0-1.53,0c-3.088,0-3.094,4.8,0,4.8,8.027,0,16.054-.079,24.081-.133q6.2-.04,12.4-.085c1.874-.013,4.09.236,5.91-.334,4.028-1.261,6.719-5.332,8.379-8.972A50.407,50.407,0,0,0,144.187,99c.151-6.591-.393-13.547-2.791-19.749a22.062,22.062,0,0,0-7.189-10.149,12.292,12.292,0,0,0-3.769-1.89c-2-.587-4.182-.378-6.234-.382q-12.493-.025-24.987-.024-3.039,0-6.077-.012c-3.089-.008-3.093,4.792,0,4.8Z"/><path class="a" d="M63.828,27.685c36.272,0,61.344,31.84,61.344,69.1,0,43.131-23.728,70.4-61.346,70.4-38.493,0-61.347-27.264-61.347-70.395C2.479,59.271,27.683,27.685,63.828,27.685Z"/><path class="c" d="M63.828,30.085A55.282,55.282,0,0,1,100.4,43.843c10.249,9.073,17.046,21.454,20.239,34.69a88.074,88.074,0,0,1-.933,42.974c-3.206,11.855-9.263,22.8-18.676,30.749-9.08,7.67-20.918,11.705-32.838,12.4-12.527.726-25.316-1.537-36.008-8.116-9.883-6.081-17.253-15.643-21.536-26.476A90.046,90.046,0,0,1,5.317,88.27c1.406-13.548,6.521-27.023,15.26-37.555a55.024,55.024,0,0,1,43.251-20.63c3.088-.009,3.094-4.809,0-4.8A60.443,60.443,0,0,0,24.252,40.08C13.335,49.558,5.963,62.772,2.5,76.727a94.563,94.563,0,0,0,.588,45.547c3.216,12.535,9.519,24.512,19.4,33.061,9.927,8.592,22.478,13.038,35.474,14.025,13.353,1.014,27.212-1.349,38.82-8.243,11.186-6.642,19.372-17.044,24.351-28.96a81.63,81.63,0,0,0,5.406-20.352,98.1,98.1,0,0,0,.575-23.686,76.406,76.406,0,0,0-16.494-40.574A60.471,60.471,0,0,0,74.933,26.287a64.123,64.123,0,0,0-11.105-1C60.739,25.276,60.735,30.076,63.828,30.085Z"/><path class="c" d="M100,70.422c4.676,10.562,5.908,22.252,5.081,33.684-.674,9.32-2.815,18.8-7.552,26.939a38.232,38.232,0,0,1-9.164,10.7,2.415,2.415,0,0,0,0,3.394,2.458,2.458,0,0,0,3.394,0c7.448-5.955,12.267-14.542,15.023-23.561a82.286,82.286,0,0,0,2.829-33.32A70.545,70.545,0,0,0,104.149,68a2.417,2.417,0,0,0-3.284-.861A2.46,2.46,0,0,0,100,70.422Z"/><path class="d" d="M88.154,51.425a38.672,38.672,0,0,1,9.8,10.262"/><path class="c" d="M86.942,53.5c.232.165.463.33.691.5.114.085.227.171.34.257.238.177-.362-.292-.013-.009.443.36.886.719,1.316,1.1q1.3,1.135,2.487,2.39Q92.938,58.966,94,60.3c.092.115.183.231.274.346.36.456-.2-.269,0,0,.176.238.356.472.53.711q.552.758,1.071,1.538a2.4,2.4,0,1,0,4.145-2.423A42.294,42.294,0,0,0,89.365,49.353a2.411,2.411,0,0,0-3.284.861,2.464,2.464,0,0,0,.861,3.283Z"/><path class="c" d="M147.934,126.7c5.448-5.32,7.384-13.614,8.334-20.892a62.7,62.7,0,0,0-1.621-25.448,28.186,28.186,0,0,0-5.663-10.95c-2.058-2.312-5.442,1.092-3.394,3.394a8.648,8.648,0,0,1,1.14,1.471,22.238,22.238,0,0,1,1.218,2.063,24.3,24.3,0,0,1,1.745,4.241,48.5,48.5,0,0,1,2.124,11.059,58.091,58.091,0,0,1-2.432,23.2,24.974,24.974,0,0,1-2.071,4.746,13.751,13.751,0,0,1-2.774,3.717c-2.213,2.162,1.182,5.555,3.394,3.395Z"/></svg>